<svg version="1.1" id="Layer_1" xmlns="http://www.w3.org/2000/svg" x="0" y="0" viewBox="0 0 294 141" style="enable-background:new 0 0 294 141" xml:space="preserve"><style>.st0{fill:#fec10d}</style><switch><g><path class="st0" d="M0 6.77h286.03V141H0z"/><path d="M7.97 0H294v134.23H7.97z"/><ellipse class="st0" cx="150.44" cy="66.75" rx="53.86" ry="51.54"/><path d="M116.06 91.06c-3.2-1.74-3.41-9.68-3.55-13.29-.14-5.71-.07-11.42.28-17.12 0-.7.35-5.08.42-5.85 0-.42-.07-2.23.07-2.64.35-.9 1.11-1.81 2.02-2.16.49-.21 1.46-.21 1.88.21s.77 2.44.9 3.06c.14.7.35 4.11.42 4.8.35 6.26.35 12.53.84 18.79.21 2.44.42 4.94 1.39 7.17 1.04-.14 1.81.21 2.23 1.18.42 1.18-.14 2.71-.9 3.69-1.33 1.88-4.05 3.34-6 2.16zm-.14-42.6c-1.18.14-2.16-.77-2.3-1.88-.28-2.71.28-5.5.9-8.14.07-.28.56-1.81.63-2.16.42-.9 1.11-1.74 2.09-2.09.42-.21.97-.28 1.39 0 .28.21.49.9.49 1.25 0 .07-.07.21 0 .35.07.35.28.63.21.97 0 .07-.21.56-.14.63.14 2.09.14 4.18.77 6.19.14.63-.28 2.02-.63 2.58-.76 1.11-2.08 2.16-3.41 2.3zM127.06 83.61c-1.11-.84-1.88-2.23-2.3-3.55-1.04-3.27-1.25-6.75-1.39-10.16-.21-5.29.21-10.65.97-15.94-.42-.07-.97 0-1.32-.28-.97-.56-.49-1.95.28-2.78.56-.49 1.18-.9 1.88-1.18.7-3.69 1.67-7.31 2.99-10.79.28-.7.63-1.39.97-2.02.49-.77 1.25-1.39 2.09-1.67.56-.21 1.32-.28 1.67.14.35.42.21 1.04.14 1.53-.14.49-.14.97-.28 1.39-.7 1.53-1.95 8.84-2.09 10.51 3.41-.28 6.82-.35 10.23-.77.84-.14 1.67-.42 2.51-.35 2.44.35.9 3.62-1.25 4.73-3.62 1.95-8 1.88-12.04 1.81-.28 3.27-.28 6.54-.21 9.81.07 3.13.28 6.33.9 9.4.28 1.46.63 2.92 1.53 4.11 1.74-2.78 2.78-5.92 4.25-8.91l.56-1.11c.84-1.32 3.06-3.13 4.66-2.78.49.07 1.04.42 1.25.9.28.63.14 1.32-.07 1.95a54.91 54.91 0 0 1-3.06 7.45c-1.11 2.23-2.37 4.45-4.11 6.19-2.22 2.37-6.18 4.32-8.76 2.37zM149.89 86.74c-1.95-.63-3.83-1.67-5.22-3.13a7.88 7.88 0 0 1-1.53-2.92c-.42-1.81.14-3.83 1.04-5.43 1.18-2.09 3.34-4.04 5.71-4.39.56-.07 1.95-.07 2.37.14.56.42.56 1.32.28 1.95-.49 1.11-1.74 2.09-2.92 2.37-.21.49-.35 1.11-.21 1.6.42 1.18 1.46 2.16 2.51 2.85 1.6 1.04 3.55 1.67 5.43 2.02 1.11.14 2.37.28 3.48.07.7-1.46.56-3.2.28-4.8-.35-1.67-1.32-3.2-2.44-4.45-2.02-2.02-4.39-3.69-6.33-5.71-1.53-1.6-2.85-3.55-3.27-5.64-1.32-5.71 2.58-12.18 8.07-13.99 1.18-.35 2.51-.56 3.69-.28 2.78.77 4.25 4.52 3.9 7.45 0 .21-.07.42-.07.7.14.9-.77 1.95-1.6 2.37-.49.21-1.32.35-1.67-.07-.35-.42-.63-2.58-.84-3.06-.28-1.11-1.6-2.85-2.65-3.06-1.18-.21-2.64.9-3.2 2.02-.7 1.39-.84 3.2-.42 4.73.42 1.74 1.74 3.27 3.06 4.45 1.95 1.74 4.25 3.13 6.06 5.01 3.69 3.62 4.87 9.33 2.92 14.06-1.25 3.06-4.32 5.5-7.66 6.06-2.92.47-5.98.06-8.77-.92zM170.29 100.17c-.7-.97-.84-2.23-.7-3.41.35-1.88 1.25-3.69 2.23-5.36.49-.84 1.04-1.67 1.81-2.23 1.04-.77 2.65-1.18 3.2 0 .28.56-.07 1.25-.14 1.88-.21.77-.7 3.06-.28 3.76.21.35.9.28 1.32.21 1.46-.21 2.92-1.04 3.83-2.23.97-1.32 1.67-2.85 2.23-4.45 1.67-5.36 2.23-11.07 2.51-16.71-1.04 2.02-2.23 4.04-3.83 5.71-1.53 1.67-3.83 3.13-6.13 2.92-.84 0-1.74-.42-2.37-.97-.9-.77-1.53-1.67-2.09-2.65-1.46-2.58-2.16-5.64-2.65-8.56-1.04-6.19-.28-12.6.63-18.72 0-.14 0-.21-.07-.28-.56-.14-.49-.84-.35-1.39.14-.28.07-.63.14-.9.49-1.04 1.32-2.09 2.37-2.51.63-.21 1.39-.21 1.6.35l.21.63c.07.77-.21 4.87-.21 5.57-.21 4.8 0 9.68 1.32 14.2.63 2.09 1.46 4.18 2.51 6.13.42.9.97 1.74 1.74 2.51.35-.63.7-1.18.97-1.81 1.53-3.06 2.71-6.33 3.62-9.61.63-2.51 1.04-5.08 1.6-7.66.49-2.09 2.58-4.25 4.66-4.04.56 0 1.39.49 1.53 1.04.42 1.39.56 2.85.77 4.32.7 4.73.9 9.61.7 14.34-.21 4.87-.77 9.81-1.88 14.48-.84 3.48-2.23 7.03-4.45 9.81-2.09 2.58-4.8 4.8-7.93 5.99-2.58 1.04-6.89 1.87-8.42-.36zM125.91 91.06h1v2.31h2.06v-2.31h1v5.33h-1v-2.08h-2.06v2.08h-1v-5.33zM130.86 93.72c0-1.59 1.04-2.74 2.56-2.74 1.48 0 2.55 1.1 2.55 2.74s-1.07 2.73-2.55 2.73c-1.53 0-2.56-1.15-2.56-2.73zm4.08 0c0-1.01-.65-1.74-1.51-1.74-.91 0-1.53.77-1.53 1.74s.63 1.74 1.53 1.74c.86.01 1.51-.74 1.51-1.74zM137.59 92h-1.39v-.95h3.77V92h-1.39v4.39h-.99V92zM140.73 91.06h3.21V92h-2.23v1.28h1.79v.93h-1.79v1.24h2.38v.94h-3.36v-5.33zM144.97 91.06h1v4.4h2.23v.94h-3.23v-5.34zM148.65 95.61l.59-.78c.37.47.86.67 1.25.67.48 0 .72-.23.72-.56 0-.39-.27-.53-.88-.75-.76-.29-1.51-.66-1.51-1.67 0-.86.71-1.51 1.61-1.53.62-.01 1.2.24 1.69.68l-.57.8c-.42-.37-.78-.53-1.1-.53-.35 0-.6.2-.6.53-.01.33.27.47.84.71.87.36 1.56.6 1.56 1.63 0 1.16-.95 1.64-1.77 1.64-.65 0-1.3-.26-1.83-.84zM129.62 101.93c0 .85-.54 1.47-1.63 1.47h-2.08v-5.33h1.81c1.07 0 1.64.45 1.64 1.3 0 .48-.21.97-.76 1.19v.01c.65.17 1.02.65 1.02 1.36zm-2.74-1.67h.71c.4 0 .76-.2.76-.63 0-.38-.24-.62-.82-.62h-.65v1.25zm1.7 1.54c0-.42-.29-.69-.88-.69h-.81v1.37h.81c.52-.01.88-.23.88-.68zM134.21 98.07l-1.68 2.99v2.34h-1v-2.34l-1.66-2.99h1.14l1.03 1.95h.01l1.01-1.95h1.15zM137.73 99.02h-1.39v-.95h3.77v.95h-1.39v4.39h-.99v-4.39zM143.56 103.4l-1.12-1.83h-.58v1.83h-.98v-5.33h1.9c1.21 0 1.75.75 1.75 1.77 0 .86-.39 1.38-1.03 1.61l1.24 1.95h-1.18zm-1.71-2.75h.69c.62 0 .95-.33.95-.83 0-.49-.33-.81-.91-.81h-.74v1.64zM145.49 98.07h3.21v.95h-2.23v1.28h1.79v.93h-1.79v1.24h2.38v.94h-3.36v-5.34zM149.73 98.07h3.21v.95h-2.23v1.28h1.79v.93h-1.79v1.24h2.38v.94h-3.36v-5.34zM157.68 101.93c0 .85-.54 1.47-1.63 1.47h-2.08v-5.33h1.81c1.07 0 1.64.45 1.64 1.3 0 .48-.21.97-.76 1.19v.01c.66.17 1.02.65 1.02 1.36zm-2.73-1.67h.71c.4 0 .76-.2.76-.63 0-.38-.24-.62-.82-.62h-.65v1.25zm1.69 1.54c0-.42-.29-.69-.88-.69h-.81v1.37h.81c.52-.01.88-.23.88-.68zM158.24 100.74c0-1.59 1.04-2.74 2.56-2.74 1.48 0 2.55 1.1 2.55 2.74s-1.07 2.73-2.55 2.73c-1.53-.01-2.56-1.16-2.56-2.73zm4.08 0c0-1.01-.65-1.74-1.51-1.74-.91 0-1.53.77-1.53 1.74s.63 1.74 1.53 1.74c.86 0 1.51-.74 1.51-1.74z"/></g></switch></svg>